<svg width="215" height="215" viewBox="0 0 215 215" fill="none" xmlns="http://www.w3.org/2000/svg">
<circle cx="107.5" cy="107.5" r="107.5" fill="#2A9146"/>
<path d="M87.4609 116.922V157H73.9609V54.625H111.719C122.922 54.625 131.688 57.4844 138.016 63.2031C144.391 68.9219 147.578 76.4922 147.578 85.9141C147.578 95.8516 144.461 103.516 138.227 108.906C132.039 114.25 123.156 116.922 111.578 116.922H87.4609ZM87.4609 105.883H111.719C118.938 105.883 124.469 104.195 128.312 100.82C132.156 97.3984 134.078 92.4766 134.078 86.0547C134.078 79.9609 132.156 75.0859 128.312 71.4297C124.469 67.7734 119.195 65.875 112.492 65.7344H87.4609V105.883Z" fill="white"/>
</svg>
