<svg width="431" height="156" viewBox="0 0 431 156" fill="none" xmlns="http://www.w3.org/2000/svg">
<line x1="19.5" y1="33" x2="19.5" y2="121" stroke="white"/>
<line x1="0.5" y1="55" x2="0.500002" y2="99" stroke="white"/>
<line x1="37.5" y1="23" x2="37.5" y2="132" stroke="white"/>
<line x1="73.5" y1="122" x2="73.5" y2="34" stroke="white"/>
<line x1="92.5" y1="100" x2="92.5" y2="56" stroke="white"/>
<line x1="56.5" y1="156" x2="56.5" y2="2.18557e-08" stroke="white"/>
<line x1="133.5" y1="33" x2="133.5" y2="121" stroke="white"/>
<line x1="114.5" y1="55" x2="114.5" y2="99" stroke="white"/>
<line x1="151.5" y1="23" x2="151.5" y2="132" stroke="white"/>
<line x1="187.5" y1="122" x2="187.5" y2="34" stroke="white"/>
<line x1="206.5" y1="100" x2="206.5" y2="56" stroke="white"/>
<line x1="170.5" y1="156" x2="170.5" y2="2.18557e-08" stroke="white"/>
<line x1="243.5" y1="33" x2="243.5" y2="121" stroke="white"/>
<line x1="224.5" y1="55" x2="224.5" y2="99" stroke="white"/>
<line x1="261.5" y1="23" x2="261.5" y2="132" stroke="white"/>
<line x1="297.5" y1="122" x2="297.5" y2="34" stroke="white"/>
<line x1="316.5" y1="100" x2="316.5" y2="56" stroke="white"/>
<line x1="280.5" y1="156" x2="280.5" y2="2.18557e-08" stroke="white"/>
<line x1="357.5" y1="33" x2="357.5" y2="121" stroke="white"/>
<line x1="338.5" y1="55" x2="338.5" y2="99" stroke="white"/>
<line x1="375.5" y1="23" x2="375.5" y2="132" stroke="white"/>
<line x1="411.5" y1="122" x2="411.5" y2="34" stroke="white"/>
<line x1="430.5" y1="100" x2="430.5" y2="56" stroke="white"/>
<line x1="394.5" y1="156" x2="394.5" y2="2.18557e-08" stroke="white"/>
</svg>
