<?xml version="1.0" encoding="iso-8859-1"?>
<!-- Generator: Adobe Illustrator 19.0.0, SVG Export Plug-In . SVG Version: 6.00 Build 0)  -->
<svg version="1.1" id="Layer_1" xmlns="http://www.w3.org/2000/svg" xmlns:xlink="http://www.w3.org/1999/xlink" x="0px" y="0px"
	 viewBox="0 0 512.001 512.001" style="enable-background:new 0 0 512.001 512.001;" xml:space="preserve">
<g>
	<g>
		<path d="M442.133,202.86c-51.263-72.922-114.058-56.837-155.609-46.193c-4.38,1.122-8.669,2.221-12.727,3.157
			c0.63-5.394,1.542-10.638,2.716-15.745l3.565-0.05l0.184-13.138c10.646-31.187,32.604-56.644,66.333-77.086l-17.308-28.558
			c-23.059,13.975-41.708,30.287-55.938,48.836c-5.296-16.852-13.591-30.981-24.858-42.248
			C226.795,10.14,194.507-0.567,152.533,0.023L136.299,0.25l-0.227,16.235c-0.587,41.976,10.117,74.261,31.815,95.958
			c17.861,17.861,42.92,28.24,74.63,31.037c-1.027,5.479-1.801,11.079-2.335,16.792c-4.631-1.024-9.605-2.297-14.704-3.603
			c-41.553-10.643-104.348-26.729-155.609,46.193c-24.497,34.848-31.9,82.012-21.408,136.395
			c12.391,64.233,49.644,130.833,86.655,154.918c45.108,29.357,83.168,15.492,105.907,7.208c5.511-2.008,12.369-4.506,14.98-4.506
			c2.611,0,9.469,2.499,14.98,4.506c12.323,4.489,29.144,10.618,49.15,10.618c16.909,0,36.093-4.379,56.757-17.826
			c37.011-24.086,74.263-90.687,86.655-154.918C474.032,284.872,466.629,237.708,442.133,202.86z M191.498,88.83
			c-12.33-12.33-19.535-30.745-21.503-54.883c24.135,1.969,42.554,9.174,54.883,21.503c12.33,12.33,19.535,30.745,21.503,54.883
			C222.246,108.363,203.827,101.158,191.498,88.83z M430.753,332.93c-11.766,60.99-46.576,116.657-72.08,133.255
			c-31.133,20.262-55.109,11.527-76.263,3.821c-9.608-3.501-17.905-6.523-26.411-6.523c-8.505,0-16.802,3.023-26.411,6.523
			c-21.152,7.707-45.127,16.442-76.262-3.821c-32.756-21.317-62.919-85.768-72.08-133.255
			c-11.034-57.196,2.577-91.858,15.939-110.865c22.656-32.23,46.621-41.445,70.829-41.445c16.392,0,32.897,4.228,49.175,8.397
			c13.823,3.541,26.879,6.886,38.809,6.886c11.93,0,24.987-3.344,38.809-6.886c40.317-10.327,82.004-21.006,120.005,33.048
			C439.021,256.501,436.844,301.36,430.753,332.93z" fill="#364a15"/>
	</g>
</g>
<g>
</g>
<g>
</g>
<g>
</g>
<g>
</g>
<g>
</g>
<g>
</g>
<g>
</g>
<g>
</g>
<g>
</g>
<g>
</g>
<g>
</g>
<g>
</g>
<g>
</g>
<g>
</g>
<g>
</g>
</svg>
